Coordinates
version=1
nRows=11
nColumns=36
inDegrees=yes

Units are S.I. units (second, meters, Newtons, ...)
If the header above contains a line with 'inDegrees', this indicates whether rotational values are in degrees (yes) or radians (no).

endheader
time	pelvis_tilt	pelvis_list	pelvis_rotation	pelvis_tx	pelvis_ty	pelvis_tz	hip_flexion_r	hip_adduction_r	hip_rotation_r	knee_angle_r	knee_angle_r_beta	ankle_angle_r	subtalar_angle_r	mtp_angle_r	hip_flexion_l	hip_adduction_l	hip_rotation_l	knee_angle_l	knee_angle_l_beta	ankle_angle_l	subtalar_angle_l	mtp_angle_l	lumbar_extension	lumbar_bending	lumbar_rotation	arm_flex_r	arm_add_r	arm_rot_r	elbow_flex_r	pro_sup_r	arm_flex_l	arm_add_l	arm_rot_l	elbow_flex_l	pro_sup_l
      3.83750000	    -16.86040829	     -3.04335159	      3.53589449	      0.17520215	      0.83097850	     -0.11728064	     56.53271982	     -7.90307356	     -3.03249632	     63.92864962	      1.11576542	     14.37332777	     -8.83914327	     -7.49999987	     64.93172762	     -8.10125239	      1.95740618	     75.00863645	      1.30914767	      0.86810056	    -14.59696601	     -7.49999987	    -46.42832313	     -0.69271538	      0.05056076	     16.93393631	    -13.86704700	     -2.93675623	     18.41329585	     77.40256459	     11.59199420	    -14.70114587	      2.69167210	     18.99773785	     62.73326671
      3.84166670	    -17.25148159	     -3.12636656	      3.32711829	      0.17424323	      0.82958188	     -0.12052669	     57.18059922	     -7.82189933	     -2.96360676	     64.12434782	      1.11918100	     14.06894296	     -8.94347188	     -7.49999987	     65.48118939	     -8.22596032	      1.79247983	     74.82702207	      1.30597790	      0.94434196	    -15.60102198	     -7.49999987	    -46.33398277	     -0.66209293	      0.32955036	     16.63454022	    -13.55454535	     -2.89568845	     17.80615036	     77.13752509	     11.40298893	    -14.87568463	      2.17808297	     18.41567409	     62.54715673
      3.84583330	    -17.52756280	     -3.20595373	      3.12569032	      0.17656413	      0.83599762	     -0.12239832	     57.31884241	     -7.76050709	     -2.91891012	     63.72897792	      1.11228049	     13.71897997	     -8.72059671	     -7.49999987	     65.46928615	     -8.32431811	      1.61425519	     73.95709515	      1.29079482	      1.17167567	    -15.95267137	     -7.49999987	    -46.49395129	     -0.48876779	      0.63383786	     16.37415594	    -13.38401303	     -2.90847853	     17.75210538	     77.13056032	     11.04119864	    -14.89057986	      1.98173642	     18.31496356	     62.49376174
      3.85000000	    -17.70654402	     -3.14758558	      2.87529217	      0.17725948	      0.83496377	     -0.12303355	     57.50564511	     -7.71423081	     -2.64750315	     63.57014693	      1.10950837	     12.96144975	     -8.80388894	     -7.49999987	     65.34758198	     -8.32599341	      1.36199687	     73.18238776	      1.27727362	      0.53309491	    -17.69361086	     -7.49999987	    -46.67880282	     -0.53013773	      0.61956738	     16.51657021	    -12.92854165	     -5.93889038	     17.19611251	     80.83675099	     10.31523335	    -13.69410058	    -10.26353781	     19.20628003	     67.59799013
      3.85416670	    -17.87206381	     -3.15466521	      2.63452360	      0.17721078	      0.83469747	     -0.12387977	     57.65651432	     -7.69090882	     -2.55424082	     63.39536387	      1.10645783	     12.58041210	     -8.47717447	     -7.49999987	     65.31050610	     -8.35086021	      1.16805303	     72.57345981	      1.26664582	      0.46475696	    -18.73790461	     -7.49999987	    -46.92428279	     -0.44458376	      1.16503477	     16.28539996	    -12.76019828	     -6.42673470	     16.97795766	     79.61907287	     10.30776776	    -13.62823353	    -11.44518329	     19.49846231	     66.83320477
      3.85833330	    -18.17874597	     -3.22030730	      2.34664162	      0.17526379	      0.83442723	     -0.12142845	     58.08977373	     -7.46642081	     -2.46124363	     63.30317784	      1.10484888	     12.31024828	     -8.34548348	     -7.49999987	     65.54858301	     -8.50506170	      1.12118881	     71.92250692	      1.25528455	      0.71375516	    -18.99263165	     -7.49999987	    -47.10811745	     -0.45116749	      1.31114235	     16.29374338	    -12.05550942	     -9.38967600	     17.03148590	     79.27936676	     10.07369527	    -12.98080725	    -19.93348331	     21.04569645	     65.61337059
      3.86250000	    -18.49145240	     -3.23402662	      2.10474741	      0.17749948	      0.83321888	     -0.12256069	     58.46117646	     -7.29912281	     -2.36331794	     63.29037772	      1.10462548	     12.16302653	     -8.28970861	     -7.49999987	     65.80155444	     -8.57156869	      1.13649423	     71.43453201	      1.24676778	      0.67263462	    -19.24796352	     -7.49999987	    -47.21075119	     -0.51040027	      1.36048954	     16.11255579	    -11.30746339	    -12.74853581	     17.33602847	     79.64148005	      9.70262454	    -12.95748803	    -25.15331259	     23.19716543	     66.49381896
      3.86666670	    -18.84432688	     -3.24465848	      1.86007424	      0.17797364	      0.83535630	     -0.12192820	     58.74748516	     -7.05337836	     -2.20974865	     63.02000418	      1.09990657	     11.86257783	     -8.40453540	     -7.49999987	     65.93787288	     -8.64981191	      1.13648655	     70.62028267	      1.23255645	      0.68240741	    -19.00600186	     -7.49999987	    -47.17776282	     -0.62848783	      1.63494092	     15.55319175	    -10.56791953	    -16.15611349	     17.72528863	     80.22727355	     10.06145079	    -13.33594239	    -29.44724550	     24.49312672	     68.36198107
      3.87083330	    -19.23987766	     -3.11579848	      1.61430085	      0.17741349	      0.83942912	     -0.12354450	     58.85759736	     -6.95624062	     -1.99661775	     62.40586384	      1.08918780	     11.50083926	     -8.39751980	     -7.49999987	     65.78801826	     -8.50433363	      1.03516590	     69.28794679	      1.20930280	      0.31829415	    -18.84186223	     -7.49999987	    -47.20760136	     -0.66861106	      1.78058714	     15.19246089	    -10.41078701	    -16.69630230	     18.20474460	     79.17431012	     10.49850032	    -14.04386660	    -30.00342845	     25.87335346	     68.01229152
      3.87500000	    -19.37861696	     -3.10690537	      1.45868053	      0.17917532	      0.84151022	     -0.12271397	     58.62503414	     -6.80797232	     -1.97687945	     61.75788237	      1.07787839	     11.08806855	     -8.42115903	     -7.49999987	     65.32543987	     -8.50799175	      1.01899002	     67.82636591	      1.18379340	      0.23625531	    -17.85801942	     -7.49999987	    -47.54317953	     -0.68906693	      1.97759893	     14.91021869	     -9.42564822	    -23.37083715	     19.03735970	     87.18664296	     11.39373667	    -14.53917434	    -35.25103317	     27.16436599	     76.50720614
      3.87916670	    -19.41516462	     -3.10497419	      1.28272620	      0.18075114	      0.84328454	     -0.12480650	     58.31456263	     -6.71517790	     -2.01669405	     61.16226736	      1.06748294	     10.56526650	     -8.57745467	     -7.49999987	     64.71719860	     -8.47264614	      1.04493032	     66.39316941	      1.15877941	      0.02444636	    -16.88034369	     -7.49999987	    -47.88342189	     -0.60227196	      2.17764812	     14.71288136	     -9.21172631	    -23.60431144	     19.12587430	     85.96818003	     12.23505424	    -15.41587731	    -36.74221327	     28.31921065	     75.18345340
